<?xml version="1.0" encoding="utf-8"?>
<?xml-stylesheet type="text/xsl" href="rss1.xsl"?>
<rss version="2.0" xmlns:atom="http://www.w3.org/2005/Atom" xmlns:content="http://purl.org/rss/1.0/modules/content/" xmlns:dc="http://purl.org/dc/elements/1.1/" xmlns:media="http://search.yahoo.com/mrss/">
<channel>
 <title>Getty</title>
 <link>http://www.gettyimg.com/</link>
 <atom:link href="http://www.gettyimg.com/" rel="self" type="application/rss+xml" />

 
                <item>
                <title><![CDATA[【PRORES HD】AURORA - Giving in to The Love (ProRes 1080)]]></title>
                <link><![CDATA[https://sharemania.us/threads/aurora-giving-in-to-the-love-prores-1080.242955/]]></link>
                <description><![CDATA[<article>
<blockquote class="messageText SelectQuoteContainer ugc baseHtml">
<div style="text-align: center"><img src="https://i.ibb.co/QQ8jRmr/AURORA-Giving-in-to-The-Love-VTM.gif" class="bbCodeImage LbImage" alt="[​IMG]" data-url="https://i.ibb.co/QQ8jRmr/AURORA-Giving-in-to-The-Love-VTM.gif" style=""><br>
​</div>
<div class="ToggleTriggerAnchor bbCodeSpoilerContainer">
<button type="button" class="button bbCodeSpoilerButton ToggleTrigger Tooltip JsOnly" data-target="> .SpoilerTarget"><span>Spoiler: <span class="SpoilerTitle">ProRes</span></span></button>
<div class="SpoilerTarget bbCodeSpoilerText">
<div class="bbCodeBlock bbCodeCode">
<div class="type">Code:</div>
<pre>General
Complete name                            : AURORA - Giving in to The Love.mp4
Format                                   : MPEG-4
Format profile                           : QuickTime
Codec ID                                 : qt   0000.00 (qt  )
File size                                : 3.82 GiB
Duration                                 : 3 min 0 s
Overall bit rate mode                    : Variable
Overall bit rate                         : 182 Mb/s
Frame rate                               : 25.000 FPS
Movie name                               : AURORA - GITTL ONLINE 1_03
Description                              : This video is about AURORA - GITTL ONLINE 1_03
Encoded date                             : 2021-10-12 14:52:52 UTC
Tagged date                              : 2021-10-12 14:58:12 UTC
Writing library                          : Apple QuickTime
com.apple.quicktime.keywords             : ONLINE,PROSJEKTER,IMPORT,untitled00090000_0000977,untitled00090000_0000515,alt_takes,prores422,untitled00090000_0000000,2021_10_11_v3
com.apple.quicktime.author               : Sigurd Fossen
com.apple.quicktime.title                : AURORA - GITTL ONLINE 1_03

Video
ID                                       : 2
Format                                   : ProRes
Format version                           : Version 0
Format profile                           : 422 HQ
Codec ID                                 : apch
Duration                                 : 3 min 0 s
Bit rate mode                            : Variable
Bit rate                                 : 179 Mb/s
Width                                    : 1 920 pixels
Height                                   : 1 080 pixels
Display aspect ratio                     : 16:9
Frame rate mode                          : Constant
Frame rate                               : 25.000 FPS
Color space                              : YUV
Chroma subsampling                       : 4:2:2
Scan type                                : Progressive
Bits/(Pixel*Frame)                       : 3.458
Stream size                              : 3.76 GiB (99%)
Title                                    : Core Media Video
Writing library                          : Apple
Encoded date                             : 2021-10-12 14:52:52 UTC
Tagged date                              : 2021-10-12 14:58:12 UTC
Color primaries                          : BT.709
Transfer characteristics                 : BT.709
Matrix coefficients                      : BT.709

Audio
ID                                       : 1
Format                                   : PCM
Format settings                          : Little / Signed
Codec ID                                 : lpcm
Duration                                 : 3 min 0 s
Bit rate mode                            : Constant
Bit rate                                 : 2 304 kb/s
Channel(s)                               : 2 channels
Channel layout                           : L R
Sampling rate                            : 48.0 kHz
Bit depth                                : 24 bits
Stream size                              : 49.5 MiB (1%)
Title                                    : Core Media Audio
Encoded date                             : 2021-10-12 14:52:52 UTC
Tagged date                              : 2021-10-12 14:58:12 UTC

Other
ID                                       : 3
Type                                     : Time code
Format                                   : QuickTime TC
Duration                                 : 3 min 0 s
Frame rate                               : 25.000 FPS
Time code of first frame                 : 00:00:00:00
Time code of last frame                  : 00:03:00:07
Time code, stripped                      : Yes
Title                                    : Core Media Time Code
Encoded date                             : 2021-10-12 14:52:52 UTC
Tagged date                              : 2021-10-12 14:58:12 UTC

</pre>
</div><div style="text-align: center">​</div></div>
</div><div style="text-align: center"><br>
<div class="bbCodeBlock bbCodeVfcHH HiddenContent">
<div class="attribution type">Hidden Content:</div>
<blockquote>You must reply before you can see the hidden data contained here.</blockquote>
</div></div>
<div class="messageTextEndMarker">&nbsp;</div>
</blockquote>
</article>]]></description>
                <author><![CDATA[fstambuk]]></author>
                </item>

                
                <item>
                <title><![CDATA[【Requests】[REQ AUD] - Bryson Tiller - Bryson Tiller | Qobuz (Hi-Res 96 kHz)]]></title>
                <link><![CDATA[https://sharemania.us/threads/bryson-tiller-bryson-tiller-qobuz-hi-res-96-khz.242956/]]></link>
                <description><![CDATA[<article>
<blockquote class="messageText SelectQuoteContainer ugc baseHtml">
Desperately looking for this album in Hi-Res or CD Quality. The album link is below on Qobuz, thanks in advance.<br>
<br>
<a href="https://open.qobuz.com/album/goxldoshbeqna" target="_blank" class="externalLink" rel="nofollow">https://open.qobuz.com/album/goxldoshbeqna</a>
<div class="messageTextEndMarker">&nbsp;</div>
</blockquote>
</article>]]></description>
                <author><![CDATA[Reinx]]></author>
                </item>

                </channel></rss>